<?xml version="1.0" encoding="utf-8"?>
<!-- Generator: Adobe Illustrator 21.0.0, SVG Export Plug-In . SVG Version: 6.00 Build 0)  -->
<svg version="1.1" id="Capa_1" xmlns="http://www.w3.org/2000/svg" xmlns:xlink="http://www.w3.org/1999/xlink" x="0px" y="0px"
	 viewBox="0 0 75 75" style="enable-background:new 0 0 75 75;" xml:space="preserve">
<g>
	<path d="M32.9,34.6l-6.1,6.2c-1.8,1.8-4.8,1.8-6.6,0s-1.8-4.8,0-6.6l13.9-14.1c0.9-0.9,2.1-1.4,3.3-1.4s2.4,0.5,3.3,1.4l14.2,14.1
		c2,2,1.8,5.4-0.6,7.1c-1.9,1.4-4.6,1-6.2-0.7l-5.3-5.2l-0.6-0.1v4.6v11.8c0,2.6-2.1,4.6-4.6,4.6h-0.1c-2.6,0-4.6-2.1-4.6-4.6V34.6z
		"/>
	<path d="M37.5,75C58.2,75,75,58.2,75,37.5S58.3,0,37.5,0S0,16.8,0,37.5S16.8,75,37.5,75z M37.5,9.4C53,9.4,65.6,22,65.6,37.5
		S53.1,65.6,37.5,65.6S9.4,53,9.4,37.5S22,9.4,37.5,9.4z"/>
</g>
</svg>
