<svg xmlns="http://www.w3.org/2000/svg" xmlns:xlink="http://www.w3.org/1999/xlink" version="1.1" x="0px" y="0px" viewBox="0 0 512 640" style="enable-background:new 0 0 512 512;" xml:space="preserve"><g><g><polygon points="20.938,421.522 75.901,421.522 123.331,421.522 491.999,421.522 491.999,387.265 20.938,387.265   "/><path d="M454.64,366.877c0.09-1.486,0.163-2.972,0.222-4.457c0.026-0.659,0.038-1.318,0.058-1.979    c0.024-0.825,0.056-1.65,0.071-2.476c0.012-0.639,0.009-1.277,0.016-1.917c0.008-0.845,0.021-1.69,0.02-2.535    c-0.002-0.611-0.017-1.223-0.023-1.834c-0.011-0.87-0.015-1.741-0.035-2.611c-0.015-0.633-0.044-1.265-0.064-1.897    c-0.027-0.849-0.049-1.697-0.087-2.545c-0.028-0.631-0.07-1.261-0.104-1.892c-0.046-0.848-0.085-1.695-0.141-2.541    c-0.043-0.659-0.101-1.315-0.15-1.974c-0.062-0.818-0.116-1.638-0.188-2.455c-0.055-0.632-0.123-1.263-0.184-1.894    c-0.081-0.843-0.156-1.686-0.247-2.526c-0.065-0.612-0.146-1.223-0.217-1.834c-0.101-0.859-0.195-1.719-0.307-2.576    c-0.078-0.604-0.17-1.207-0.253-1.81c-0.119-0.864-0.233-1.729-0.363-2.591c-0.086-0.575-0.187-1.148-0.277-1.722    c-0.142-0.891-0.278-1.782-0.432-2.671c-0.092-0.533-0.196-1.064-0.292-1.598c-0.168-0.927-0.33-1.854-0.51-2.78    c-0.1-0.511-0.21-1.02-0.313-1.529c-0.19-0.947-0.378-1.895-0.582-2.84c-0.098-0.454-0.207-0.906-0.308-1.359    c-0.223-0.999-0.442-1.998-0.68-2.995c-0.102-0.428-0.214-0.854-0.318-1.282c-0.249-1.02-0.497-2.039-0.761-3.057    c-0.105-0.403-0.22-0.805-0.327-1.207c-0.273-1.026-0.545-2.052-0.834-3.074l-6.657-19.854c-0.393-1.018-0.809-2.049-1.228-3.082    c-0.106-0.261-0.203-0.517-0.311-0.778c-1.077-2.62-2.238-5.285-3.477-7.979c-0.112-0.243-0.232-0.489-0.346-0.732    c-0.507-1.093-1.02-2.187-1.551-3.286l-9.023-16.506c-0.526-0.874-1.073-1.729-1.611-2.594c-0.482-0.774-0.955-1.56-1.447-2.326    c-0.608-0.949-1.238-1.88-1.86-2.816c-0.444-0.669-0.878-1.348-1.329-2.011c-0.682-1.001-1.385-1.981-2.082-2.968    c-0.41-0.581-0.811-1.172-1.226-1.747c-0.752-1.04-1.524-2.059-2.293-3.081c-0.379-0.505-0.748-1.02-1.131-1.52    c-0.816-1.065-1.652-2.109-2.487-3.155c-0.352-0.441-0.694-0.893-1.05-1.331c-0.909-1.12-1.839-2.22-2.77-3.317    c-0.295-0.347-0.58-0.704-0.876-1.049c-0.992-1.153-2.003-2.286-3.018-3.414c-0.248-0.275-0.488-0.56-0.738-0.834    c-1.086-1.194-2.191-2.367-3.303-3.532c-0.188-0.196-0.369-0.399-0.557-0.596c-1.177-1.223-2.372-2.424-3.576-3.613    c-0.131-0.129-0.257-0.263-0.388-0.392c-1.224-1.201-2.464-2.381-3.715-3.547c-0.118-0.11-0.232-0.226-0.351-0.335    c-1.287-1.195-2.591-2.367-3.906-3.524c-0.087-0.076-0.17-0.156-0.257-0.232c-1.377-1.207-2.77-2.393-4.176-3.558    c-0.028-0.023-0.055-0.047-0.082-0.07c-11.468-9.493-23.926-17.612-37.161-24.221c-0.02-0.01-0.038-0.021-0.058-0.03    c-1.524-0.76-3.061-1.495-4.605-2.215c-0.136-0.063-0.269-0.132-0.404-0.194c-1.601-0.742-3.214-1.459-4.835-2.157    c-0.081-0.034-0.161-0.073-0.242-0.107c-1.467-0.63-2.946-1.231-4.431-1.825c-0.24-0.096-0.478-0.2-0.718-0.296    c-1.435-0.566-2.88-1.105-4.329-1.638c-0.296-0.108-0.587-0.228-0.883-0.334c-1.563-0.565-3.136-1.104-4.714-1.63    c-0.188-0.063-0.372-0.132-0.56-0.193c-1.488-0.491-2.986-0.953-4.488-1.408c-0.284-0.086-0.564-0.182-0.849-0.266    c-1.383-0.412-2.775-0.795-4.169-1.177c-0.41-0.111-0.815-0.236-1.226-0.346c-1.361-0.362-2.733-0.696-4.104-1.03    c-0.45-0.109-0.895-0.231-1.345-0.338c-1.147-0.271-2.305-0.512-3.458-0.762c-0.683-0.148-1.361-0.311-2.047-0.451    c-1.11-0.229-2.231-0.428-3.348-0.637c-0.735-0.138-1.466-0.29-2.204-0.419c-1.303-0.229-2.614-0.427-3.926-0.63    c-0.559-0.086-1.114-0.187-1.675-0.269c-1.874-0.272-3.757-0.519-5.646-0.737c-1.548-0.18-2.851-1.241-3.338-2.722    c-0.487-1.479-0.071-3.108,1.065-4.173c5.996-5.609,9.434-13.462,9.434-21.545c0-16.254-13.225-29.477-29.481-29.477    c-16.289,0-29.541,13.223-29.541,29.477c0,8.063,3.422,15.92,9.39,21.559c0.989,0.934,1.426,2.296,1.191,3.61    c-0.034,0.188-0.081,0.374-0.142,0.559c-0.49,1.476-1.791,2.533-3.335,2.712C128.242,161.587,51.639,256.716,58.185,366.762    C190.494,366.763,324.699,366.82,454.64,366.877z"/></g></g><text x="0" y="527" fill="#000000" font-size="5px" font-weight="bold" font-family="'Helvetica Neue', Helvetica, Arial-Unicode, Arial, Sans-serif">Created by ibrandify</text><text x="0" y="532" fill="#000000" font-size="5px" font-weight="bold" font-family="'Helvetica Neue', Helvetica, Arial-Unicode, Arial, Sans-serif">from the Noun Project</text></svg>