<svg xmlns="http://www.w3.org/2000/svg" xmlns:xlink="http://www.w3.org/1999/xlink" version="1.1" x="0px" y="0px" viewBox="0 0 24 30" style="enable-background:new 0 0 24 24;" xml:space="preserve"><g><g><path d="M23.228,20.142L10.151,7.422C9.804,7.084,9.643,6.59,9.72,6.101c0.289-1.823-0.207-3.435-1.432-4.659    C7.332,0.486,6.104-0.014,4.894,0.001c-1.096,0.024-2.14,0.412-3.02,1.123C1.747,1.227,1.678,1.384,1.689,1.547    c0.012,0.163,0.102,0.31,0.242,0.394l3.056,1.833C4.896,4.693,4.353,5.5,3.521,5.93L0.786,4.289c-0.153-0.091-0.361-0.085-0.517,0    c-0.151,0.083-0.25,0.237-0.26,0.41c-0.083,1.394,0.398,2.718,1.352,3.73C2.303,9.428,3.629,10,5,10    c0.223,0,0.548-0.06,1.023-0.187c0.521-0.141,1.083,0.013,1.461,0.402l12.663,13.017C20.643,23.728,21.301,24,22,24    c1.103,0,2-0.897,2-2.001C24,21.3,23.728,20.642,23.228,20.142z"/><path d="M20.207,6H21.5c0.189,0,0.362-0.107,0.447-0.276l2-4c0.097-0.192,0.059-0.425-0.094-0.577l-1-1    c-0.152-0.153-0.384-0.19-0.577-0.094l-4,2C18.107,2.138,18,2.311,18,2.5v1.293l-5.002,5.004l2.236,2.175L20.207,6z"/><path d="M8.086,12.586c-0.124,0-0.243,0.046-0.335,0.129l-6.898,6.224C0.311,19.48,0,20.23,0,21c0,0.766,0.311,1.516,0.846,2.051    l0.093,0.097C1.48,23.689,2.23,24,3,24c0.777,0,1.508-0.303,2.071-0.866c0,0,6.173-6.663,6.279-6.777    c0.096-0.094,0.15-0.222,0.15-0.356c0-0.068,0.011-0.135,0.02-0.202l-3.152-3.24C8.276,12.576,8.182,12.586,8.086,12.586z"/></g></g><text x="0" y="39" fill="#000000" font-size="5px" font-weight="bold" font-family="'Helvetica Neue', Helvetica, Arial-Unicode, Arial, Sans-serif">Created by icon 54</text><text x="0" y="44" fill="#000000" font-size="5px" font-weight="bold" font-family="'Helvetica Neue', Helvetica, Arial-Unicode, Arial, Sans-serif">from the Noun Project</text></svg>